<?xml version="1.0" encoding="utf-8"?>
<!-- Generator: Adobe Illustrator 27.9.0, SVG Export Plug-In . SVG Version: 6.00 Build 0)  -->
<svg version="1.1" id="Layer_1" xmlns="http://www.w3.org/2000/svg" xmlns:xlink="http://www.w3.org/1999/xlink" x="0px" y="0px"
	 viewBox="0 0 1789.5 491.6" style="enable-background:new 0 0 1789.5 491.6;" xml:space="preserve">
<style type="text/css">
	.st0{fill:url(#SVGID_1_);}
	.st1{fill:url(#SVGID_00000127742974746481581550000009822384274832528039_);}
	.st2{fill:#C0B17C;}
	.st3{fill:url(#SVGID_00000183934611845298594220000015980245832548047781_);}
	.st4{fill:url(#SVGID_00000111902694172858437010000003178104447147817889_);}
	.st5{fill:url(#SVGID_00000130628729243889630320000010340495670862608286_);}
	.st6{fill:url(#SVGID_00000166652337977584294650000000443964197522723495_);}
	.st7{fill:url(#SVGID_00000101094448156953225720000016779947139640601775_);}
	.st8{fill:url(#SVGID_00000169541313215259556370000004713466443245610907_);}
	.st9{fill:url(#SVGID_00000070836081191022606590000004568133526664826018_);}
	.st10{fill:#032F4F;}
	.st11{fill:#011422;}
	.st12{fill:#D9D9D9;}
	.st13{opacity:0.5;fill:#D9D9D9;enable-background:new    ;}
	.st14{fill:#000B13;}
	.st15{fill:#FDEBAD;}
	.st16{fill:none;stroke:#FFFFFF;stroke-width:2;}
</style>
<g>
	
		<linearGradient id="SVGID_1_" gradientUnits="userSpaceOnUse" x1="668.1274" y1="317.182" x2="568.9474" y2="52.2393" gradientTransform="matrix(1 0 0 -1 0 533.89)">
		<stop  offset="0" style="stop-color:#438CBF"/>
		<stop  offset="0.151" style="stop-color:#4EB3B6"/>
		<stop  offset="0.276" style="stop-color:#5CA1C1"/>
		<stop  offset="0.4062" style="stop-color:#8A63E8"/>
		<stop  offset="0.6875" style="stop-color:#C55790"/>
		<stop  offset="0.9271" style="stop-color:#F54D48"/>
	</linearGradient>
	<path class="st0" d="M491.2,297.3c27.5-70.8,107.5-106.5,178.6-79.9C741,244,776.3,322.9,748.7,393.7l-2.9,7.4
		c-27.5,70.8-107.5,106.5-178.6,79.9c-71.1-26.6-106.4-105.6-78.9-176.3L491.2,297.3z"/>
</g>
<g>
	
		<linearGradient id="SVGID_00000004539022329512217980000006251434005592731040_" gradientUnits="userSpaceOnUse" x1="1307.1179" y1="328.3923" x2="1205.5874" y2="57.1549" gradientTransform="matrix(1 0 0 -1 0 533.89)">
		<stop  offset="0" style="stop-color:#438CBF"/>
		<stop  offset="0.151" style="stop-color:#4EB3B6"/>
		<stop  offset="0.276" style="stop-color:#5CA1C1"/>
		<stop  offset="0.4062" style="stop-color:#8A63E8"/>
		<stop  offset="0.6875" style="stop-color:#C55790"/>
		<stop  offset="0.9271" style="stop-color:#F54D48"/>
	</linearGradient>
	<path style="fill:url(#SVGID_00000004539022329512217980000006251434005592731040_);" d="M1184,262c19.3-49.5,75.2-74.5,124.9-55.9
		c49.7,18.6,74.4,73.8,55.1,123.3l-35.3,90.7c-19.3,49.5-75.2,74.5-124.9,55.9c-49.7-18.6-74.4-73.8-55.2-123.3L1184,262z"/>
</g>
<rect x="1205" y="282.1" class="st2" width="7.2" height="6.1"/>
<g>
	
		<linearGradient id="SVGID_00000012452169851483439020000010109997403267825808_" gradientUnits="userSpaceOnUse" x1="291.7988" y1="377.6829" x2="135.5069" y2="49.1271" gradientTransform="matrix(1 0 0 -1 0 533.89)">
		<stop  offset="0" style="stop-color:#438CBF"/>
		<stop  offset="0.151" style="stop-color:#4EB3B6"/>
		<stop  offset="0.276" style="stop-color:#5CA1C1"/>
		<stop  offset="0.4062" style="stop-color:#8A63E8"/>
		<stop  offset="0.6875" style="stop-color:#C55790"/>
		<stop  offset="0.9271" style="stop-color:#F54D48"/>
	</linearGradient>
	<path style="fill:url(#SVGID_00000012452169851483439020000010109997403267825808_);" d="M246.1,174.1
		c8.8-17.7,30.4-25.2,48.3-16.7c17.9,8.5,25.3,29.8,16.5,47.5L181.2,466.8c-8.8,17.7-30.4,25.2-48.3,16.7
		c-17.9-8.5-25.3-29.8-16.5-47.5L246.1,174.1z"/>
</g>
<g>
	
		<linearGradient id="SVGID_00000155860628786807272560000016241064818438583729_" gradientUnits="userSpaceOnUse" x1="1593.3286" y1="343.8212" x2="1483.3285" y2="49.984" gradientTransform="matrix(1 0 0 -1 0 533.89)">
		<stop  offset="0" style="stop-color:#438CBF"/>
		<stop  offset="0.151" style="stop-color:#4EB3B6"/>
		<stop  offset="0.276" style="stop-color:#5CA1C1"/>
		<stop  offset="0.4062" style="stop-color:#8A63E8"/>
		<stop  offset="0.6875" style="stop-color:#C55790"/>
		<stop  offset="0.9271" style="stop-color:#F54D48"/>
	</linearGradient>
	<path style="fill:url(#SVGID_00000155860628786807272560000016241064818438583729_);" d="M1580,197.6c2.3-6.1,9.2-9.1,15.3-6.8
		c6.1,2.3,9.1,9,6.7,15.1l-105.3,270.5c-2.4,6.1-9.2,9.1-15.3,6.8c-6.1-2.3-9.1-9-6.8-15.1L1580,197.6z"/>
</g>
<g>
	
		<linearGradient id="SVGID_00000120520146256073482910000004540633580285314725_" gradientUnits="userSpaceOnUse" x1="226.8167" y1="177.9069" x2="6.0231" y2="176.7149" gradientTransform="matrix(1 0 0 -1 0 533.89)">
		<stop  offset="0" style="stop-color:#438CBF"/>
		<stop  offset="0.151" style="stop-color:#4EB3B6"/>
		<stop  offset="0.276" style="stop-color:#5CA1C1"/>
		<stop  offset="0.4062" style="stop-color:#8A63E8"/>
		<stop  offset="0.6875" style="stop-color:#C55790"/>
		<stop  offset="0.9271" style="stop-color:#F54D48"/>
	</linearGradient>
	<path style="fill:url(#SVGID_00000120520146256073482910000004540633580285314725_);" d="M159.6,289.5c36.9-0.2,67,29.6,67.2,66.5
		c0.2,36.9-29.6,67-66.5,67.2L6.4,424L5.7,290.3L159.6,289.5z"/>
</g>
<g>
	
		<linearGradient id="SVGID_00000008117461235990158440000012454185817308030085_" gradientUnits="userSpaceOnUse" x1="603.6854" y1="253.3186" x2="525.8963" y2="45.5174" gradientTransform="matrix(1 0 0 -1 0 533.89)">
		<stop  offset="0" style="stop-color:#438CBF"/>
		<stop  offset="0.151" style="stop-color:#4EB3B6"/>
		<stop  offset="0.276" style="stop-color:#5CA1C1"/>
		<stop  offset="0.4062" style="stop-color:#8A63E8"/>
		<stop  offset="0.6875" style="stop-color:#C55790"/>
		<stop  offset="0.9271" style="stop-color:#F54D48"/>
	</linearGradient>
	<path style="fill:url(#SVGID_00000008117461235990158440000012454185817308030085_);" d="M544.8,308c9.3-23.9,36.3-35.9,60.3-27
		c24,9,35.9,35.6,26.6,59.5l-46.8,120.3c-9.3,23.9-36.3,35.9-60.3,27s-35.9-35.6-26.6-59.5L544.8,308z"/>
</g>
<g>
	
		<linearGradient id="SVGID_00000137115562678302286250000007570441134619426472_" gradientUnits="userSpaceOnUse" x1="1525.8917" y1="187.7683" x2="1781.5244" y2="193.9494" gradientTransform="matrix(1 0 0 -1 0 533.89)">
		<stop  offset="0" style="stop-color:#438CBF"/>
		<stop  offset="0.151" style="stop-color:#4EB3B6"/>
		<stop  offset="0.276" style="stop-color:#5CA1C1"/>
		<stop  offset="0.4062" style="stop-color:#8A63E8"/>
		<stop  offset="0.6875" style="stop-color:#C55790"/>
		<stop  offset="0.9271" style="stop-color:#F54D48"/>
	</linearGradient>
	<path style="fill:url(#SVGID_00000137115562678302286250000007570441134619426472_);" d="M1614.1,430c-47.5,1.1-87-36.5-88.2-84.1
		c-1.2-47.5,36.5-87,84-88.1l169.5-3.9l4.2,172.2L1614.1,430z"/>
</g>
<g>
	
		<linearGradient id="SVGID_00000101819680252924635000000004996124454992647066_" gradientUnits="userSpaceOnUse" x1="1493.9678" y1="296.1326" x2="1552.7678" y2="39.4764" gradientTransform="matrix(1 0 0 -1 0 533.89)">
		<stop  offset="0" style="stop-color:#438CBF"/>
		<stop  offset="0.151" style="stop-color:#4EB3B6"/>
		<stop  offset="0.276" style="stop-color:#5CA1C1"/>
		<stop  offset="0.4062" style="stop-color:#8A63E8"/>
		<stop  offset="0.6875" style="stop-color:#C55790"/>
		<stop  offset="0.9271" style="stop-color:#F54D48"/>
	</linearGradient>
	<path style="fill:url(#SVGID_00000101819680252924635000000004996124454992647066_);" d="M1484.1,252.1c-1.5-6.3,2.4-12.6,8.8-14.1
		c6.3-1.5,12.7,2.5,14.2,8.8l55.6,233.2c1.5,6.3-2.4,12.6-8.8,14.1c-6.3,1.5-12.7-2.5-14.2-8.8L1484.1,252.1z"/>
</g>
<g>
	
		<linearGradient id="SVGID_00000079479996241242153090000013174712208705680793_" gradientUnits="userSpaceOnUse" x1="881.4066" y1="315.0168" x2="1025.2284" y2="60.1467" gradientTransform="matrix(1 0 0 -1 0 533.89)">
		<stop  offset="0" style="stop-color:#438CBF"/>
		<stop  offset="0.151" style="stop-color:#4EB3B6"/>
		<stop  offset="0.276" style="stop-color:#5CA1C1"/>
		<stop  offset="0.4062" style="stop-color:#8A63E8"/>
		<stop  offset="0.6875" style="stop-color:#C55790"/>
		<stop  offset="0.9271" style="stop-color:#F54D48"/>
	</linearGradient>
	<path style="fill:url(#SVGID_00000079479996241242153090000013174712208705680793_);" d="M858.2,298.2c-16.1-27.5-6.7-62.5,21-78.1
		c27.7-15.7,63.3-6.1,79.4,21.4l89.8,152.9c16.1,27.5,6.7,62.4-21,78.1c-27.8,15.7-63.3,6.1-79.5-21.4L858.2,298.2z"/>
</g>
<path class="st10" d="M1528.5,232.3l14.8,101.2h-29.6L1528.5,232.3z"/>
<rect x="344.9" y="307.4" class="st11" width="108.7" height="187.8"/>
<rect x="1499" y="297.3" class="st10" width="58" height="156.3"/>
<rect x="581.9" y="307.4" class="st10" width="64.2" height="152.2"/>
<rect x="603.6" y="323.7" class="st10" width="58" height="136"/>
<rect x="19.9" y="242.5" class="st10" width="58" height="239.5"/>
<rect x="1506.2" y="278" class="st10" width="45.5" height="29.4"/>
<rect x="675.1" y="207" class="st11" width="26.9" height="35.5"/>
<rect x="667.8" y="224.2" class="st11" width="78.7" height="231.4"/>
<rect x="51.9" y="202.9" class="st11" width="108.7" height="231.4"/>
<rect x="404.9" y="271.9" class="st11" width="62.1" height="220.2"/>
<ellipse class="st12" cx="1629.9" cy="409.4" rx="2.6" ry="2.5"/>
<ellipse class="st13" cx="43.1" cy="407.4" rx="2.6" ry="2.5"/>
<ellipse class="st12" cx="258.4" cy="372.9" rx="2.6" ry="2.5"/>
<ellipse class="st12" cx="704.6" cy="339.4" rx="2.6" ry="2.5"/>
<rect x="-1.9" y="315.6" class="st14" width="102.5" height="176.6"/>
<rect x="702" y="278" class="st14" width="127.3" height="218.2"/>
<rect x="602.6" y="336.9" class="st14" width="109.7" height="142.1"/>
<rect x="487.7" y="242.5" class="st14" width="73.5" height="35.5"/>
<rect x="476.3" y="262.8" class="st14" width="97.3" height="216.2"/>
<rect x="286.9" y="196.8" class="st14" width="108.7" height="298.4"/>
<rect x="1235" y="278" class="st14" width="108.7" height="193.8"/>
<rect x="1576.6" y="242.5" class="st11" width="97.3" height="236.5"/>
<rect x="1565.2" y="289.2" class="st11" width="108.7" height="182.7"/>
<rect x="1151.2" y="267.9" class="st11" width="66.2" height="191.8"/>
<rect x="1383" y="196.8" class="st11" width="108.7" height="290.3"/>
<rect x="1139.8" y="307.4" class="st11" width="65.2" height="183.7"/>
<rect x="1650.1" y="308.5" class="st14" width="86.9" height="135"/>
<rect x="1682.2" y="268.9" class="st14" width="108.7" height="197.9"/>
<rect x="1436.9" y="342" class="st14" width="108.7" height="129.9"/>
<rect x="1328.2" y="242.5" class="st14" width="108.7" height="224.3"/>
<rect x="204.1" y="289.2" class="st14" width="99.4" height="203"/>
<rect x="119.2" y="242.5" class="st14" width="111.8" height="249.7"/>
<rect x="1128.4" y="356.2" class="st14" width="77.6" height="122.8"/>
<rect x="991.8" y="339.9" class="st14" width="48.6" height="139"/>
<rect x="1017.7" y="336.9" class="st14" width="110.8" height="122.8"/>
<rect x="902.8" y="267.9" class="st14" width="69.3" height="211.1"/>
<rect x="836.5" y="242.5" class="st14" width="111.8" height="249.7"/>
<rect x="-1.7" y="410" class="st14" width="1793" height="86"/>
<path class="st14" d="M523.9,141l12.5,102.8h-25.1L523.9,141z"/>
<path class="st14" d="M1059.6,221.2l14.8,101.2h-29.6L1059.6,221.2z"/>
<ellipse class="st14" cx="1060.1" cy="348" rx="55.9" ry="58.9"/>
<path class="st14" d="M1059.6,260.8L1059.6,260.8c10.6,0,19.1,8.6,19.1,19.1v9.4c0,10.6-8.6,19.1-19.1,19.1h0
	c-10.6,0-19.1-8.6-19.1-19.1v-9.4C1040.4,269.3,1049,260.8,1059.6,260.8z"/>
<rect x="162.7" y="257.7" class="st15" width="10.4" height="9.1"/>
<rect x="137.9" y="257.7" class="st15" width="10.4" height="9.1"/>
<rect x="137.9" y="279" class="st15" width="10.4" height="9.1"/>
<rect x="1658.4" y="252.6" class="st2" width="7.2" height="6.1"/>
<rect x="1642.8" y="252.6" class="st2" width="7.2" height="6.1"/>
<rect x="1658.4" y="268.9" class="st2" width="7.2" height="6.1"/>
<rect x="1572.4" y="297.3" class="st2" width="7.2" height="6.1"/>
<rect x="1572.4" y="314.5" class="st2" width="7.2" height="6.1"/>
<rect x="1586.9" y="296.3" class="st2" width="7.2" height="6.1"/>
<rect x="1572.4" y="331.8" class="st2" width="7.2" height="6.1"/>
<rect x="138.9" y="299.3" class="st15" width="10.4" height="9.1"/>
<rect x="1586.9" y="314.5" class="st2" width="7.2" height="6.1"/>
<rect x="1205" y="279" class="st2" width="7.2" height="6.1"/>
<rect x="1205" y="292.2" class="st2" width="7.2" height="6.1"/>
<rect x="1189.5" y="292.2" class="st2" width="7.2" height="6.1"/>
<rect x="1205" y="304.4" class="st2" width="7.2" height="6.1"/>
<rect x="377" y="216.1" class="st15" width="9.3" height="8.1"/>
<rect x="487.7" y="295.3" class="st15" width="10.4" height="9.1"/>
<rect x="487.7" y="317.6" class="st15" width="10.4" height="9.1"/>
<rect x="511.5" y="340.9" class="st15" width="10.4" height="9.1"/>
<rect x="359.4" y="216.1" class="st15" width="9.3" height="8.1"/>
<rect x="377" y="234.4" class="st15" width="9.3" height="8.1"/>
<rect x="511.5" y="317.6" class="st15" width="10.4" height="9.1"/>
<rect x="26.1" y="255.7" class="st2" width="7.2" height="6.1"/>
<rect x="42.6" y="255.7" class="st2" width="7.2" height="6.1"/>
<rect x="26.1" y="272.9" class="st2" width="7.2" height="6.1"/>
<rect x="882.1" y="254.7" class="st15" width="10.4" height="9.1"/>
<rect x="853.1" y="304.4" class="st15" width="10.4" height="9.1"/>
<rect x="853.1" y="278" class="st15" width="10.4" height="9.1"/>
<rect x="853.1" y="254.7" class="st15" width="10.4" height="9.1"/>
<rect x="882.1" y="278" class="st15" width="10.4" height="9.1"/>
<rect x="1250.5" y="293.2" class="st15" width="10.4" height="9.1"/>
<rect x="1250.5" y="315.6" class="st15" width="10.4" height="9.1"/>
<rect x="1415.1" y="255.7" class="st15" width="10.4" height="9.1"/>
<rect x="1416.2" y="274" class="st15" width="10.4" height="9.1"/>
<rect x="1397.5" y="274" class="st15" width="10.4" height="9.1"/>
<rect x="1416.2" y="293.2" class="st15" width="10.4" height="9.1"/>
<line class="st16" x1="524.1" y1="144" x2="9.1" y2="4"/>
<line class="st16" x1="523.2" y1="144" x2="1787.2" y2="1.8"/>
<line class="st16" x1="523.4" y1="144" x2="1787.4" y2="185.9"/>
<line class="st16" x1="523.4" y1="144" x2="9.4" y2="188"/>
</svg>
